<svg width="36" height="36" viewBox="0 0 36 36" fill="none" xmlns="http://www.w3.org/2000/svg">
<path d="M31.5 6.53906C31.8883 6.53906 32.2031 6.22427 32.2031 5.83594V2.10938C32.2031 0.946269 31.2568 0 30.0938 0H2.10938C0.946269 0 0 0.946269 0 2.10938V33.8906C0 35.0537 0.946269 36 2.10938 36H30.0938C31.2568 36 32.2031 35.0537 32.2031 33.8906V31.9219C32.2031 31.5336 31.8883 31.2188 31.5 31.2188C31.1116 31.2188 30.7969 31.5336 30.7969 31.9219V33.8906C30.7969 34.2783 30.4815 34.5938 30.0938 34.5938H2.10938C1.72167 34.5938 1.40625 34.2783 1.40625 33.8906V2.10938C1.40625 1.72167 1.72167 1.40625 2.10938 1.40625H30.0938C30.4815 1.40625 30.7969 1.72167 30.7969 2.10938V5.83594C30.7969 6.22427 31.1116 6.53906 31.5 6.53906Z" fill="#13385D"/>
<path d="M28.1258 3.375H4.07812C3.68979 3.375 3.375 3.68979 3.375 4.07812V18.7735C3.375 19.1618 3.68979 19.4765 4.07812 19.4765C4.46646 19.4765 4.78125 19.1618 4.78125 18.7735V4.78125H27.4227V5.90625C27.4227 6.29458 27.7375 6.60938 28.1258 6.60938C28.5142 6.60938 28.829 6.29458 28.829 5.90625V4.07812C28.829 3.68979 28.5142 3.375 28.1258 3.375Z" fill="#13385D"/>
<path d="M4.57481 20.8779C4.44403 20.747 4.26333 20.6719 4.0777 20.6719C3.89278 20.6719 3.71137 20.747 3.58059 20.8779C3.44981 21.0087 3.37457 21.19 3.37457 21.375C3.37457 21.5599 3.44981 21.7413 3.58059 21.872C3.71137 22.0029 3.89278 22.078 4.0777 22.078C4.26333 22.078 4.44403 22.0029 4.57481 21.872C4.7063 21.7413 4.78083 21.5599 4.78083 21.375C4.78083 21.19 4.7063 21.0087 4.57481 20.8779Z" fill="#13385D"/>
<path d="M28.1258 29.6719C27.7375 29.6719 27.4227 29.9866 27.4227 30.375V31.2187H4.78125V24.082C4.78125 23.6936 4.46646 23.3789 4.07812 23.3789C3.68979 23.3789 3.375 23.6936 3.375 24.082V31.9219C3.375 32.3101 3.68979 32.625 4.07812 32.625H28.1258C28.5142 32.625 28.829 32.3101 28.829 31.9219V30.375C28.829 29.9866 28.5142 29.6719 28.1258 29.6719Z" fill="#13385D"/>
<path d="M21.7905 24.8437C21.5159 24.569 21.0708 24.569 20.7961 24.8436L19.4065 26.2333L18.5427 25.3695C17.9973 24.8242 17.11 24.8242 16.5646 25.3695L16.0025 25.9315C15.7279 26.2061 15.7279 26.6514 16.0025 26.926C16.277 27.2005 16.7222 27.2005 16.9969 26.926L17.5537 26.3693L18.4175 27.2331C18.6901 27.5058 19.0483 27.6422 19.4065 27.6422C19.7646 27.6422 20.1228 27.5058 20.3955 27.2331L21.7905 25.8381C22.0651 25.5635 22.0651 25.1183 21.7905 24.8437Z" fill="#13385D"/>
<path d="M35.6768 14.7505C35.9867 14.2671 36.0792 13.6717 35.9305 13.1171C35.7819 12.5624 35.4042 12.0932 34.8941 11.8295C34.6729 11.7152 34.5374 11.4805 34.549 11.2319C34.5757 10.6583 34.3581 10.0964 33.9521 9.69045C33.5462 9.28446 32.9846 9.06656 32.4107 9.09356C32.1608 9.10562 31.9274 8.96964 31.8131 8.7485C31.5494 8.23847 31.0801 7.86067 30.5255 7.71203C29.9706 7.56332 29.3755 7.65592 28.8922 7.96579C28.6826 8.10023 28.4116 8.10015 28.2021 7.96579C27.7187 7.65585 27.1235 7.56339 26.5688 7.71203C26.0141 7.86067 25.5448 8.23847 25.2812 8.7485C25.1668 8.96972 24.9316 9.10481 24.6836 9.09356C24.1097 9.06674 23.5481 9.28446 23.1421 9.69045C22.7362 10.0964 22.5185 10.6583 22.5453 11.2318C22.5568 11.4805 22.4213 11.7152 22.2002 11.8295C21.6902 12.0932 21.3124 12.5624 21.1638 13.1171C21.0928 13.3817 21.0774 13.6556 21.1137 13.9221H8.8442C8.45587 13.9221 8.14108 14.2369 8.14108 14.6252C8.14108 15.0136 8.45587 15.3283 8.8442 15.3283H21.4729C21.4579 15.3669 21.4403 15.4048 21.4174 15.4405C21.1075 15.9239 21.015 16.5194 21.1637 17.074C21.184 17.1502 21.2091 17.2245 21.238 17.2971H8.84399C8.45566 17.2971 8.14087 17.6119 8.14087 18.0002C8.14087 18.3886 8.45566 18.7033 8.84399 18.7033H22.5032C22.5338 18.7837 22.5491 18.8704 22.545 18.9592C22.5184 19.5328 22.7359 20.0946 23.142 20.5007C23.548 20.9067 24.1096 21.1247 24.6834 21.0976C24.9318 21.0854 25.1666 21.2214 25.2809 21.4426C25.3654 21.606 25.4712 21.7556 25.5939 21.8887V28.4554C25.5939 28.7394 25.7648 28.9955 26.0271 29.1046C26.2893 29.2137 26.5915 29.1542 26.7929 28.9538L28.547 27.2089L30.3011 28.9538C30.4356 29.0875 30.6148 29.1584 30.7972 29.1584C30.888 29.1584 30.9797 29.1408 31.0669 29.1045C31.3293 28.9954 31.5002 28.7393 31.5002 28.4553V21.8886C31.6228 21.7556 31.7287 21.6059 31.8131 21.4426C31.9274 21.2213 32.1623 21.0862 32.4107 21.0975C32.9849 21.1247 33.5462 20.9067 33.9521 20.5006C34.3581 20.0945 34.5757 19.5328 34.549 18.9592C34.5374 18.7104 34.6729 18.4759 34.8941 18.3616C35.4041 18.0979 35.7819 17.6286 35.9305 17.074C36.0792 16.5192 35.9867 15.9239 35.6768 15.4405C35.5423 15.2309 35.5423 14.9601 35.6768 14.7505ZM30.0939 26.7641L29.0429 25.7185C28.7686 25.4457 28.3254 25.4457 28.0511 25.7185L27.0002 26.7641V22.546C27.4208 22.5658 27.8424 22.4558 28.202 22.2253C28.4116 22.0908 28.6825 22.0909 28.8921 22.2253C29.2242 22.4382 29.609 22.5486 29.9974 22.5486C30.0296 22.5486 30.0617 22.5469 30.0939 22.5453V26.7641ZM34.5722 16.7101C34.5251 16.8859 34.41 17.0289 34.2482 17.1125C33.5407 17.4783 33.1072 18.2288 33.1443 19.0246C33.1528 19.2065 33.0865 19.3776 32.9577 19.5064C32.829 19.6352 32.6579 19.7012 32.476 19.693C31.6798 19.6561 30.9298 20.0892 30.5639 20.7969C30.4803 20.9587 30.3373 21.0737 30.1614 21.1208C29.9857 21.1679 29.8042 21.1398 29.651 21.0415C29.3156 20.8265 28.9314 20.719 28.5469 20.719C28.1627 20.719 27.7783 20.8266 27.443 21.0415C27.2897 21.1398 27.1084 21.1679 26.9325 21.1208C26.7565 21.0737 26.6137 20.9586 26.53 20.7969C26.1642 20.0893 25.4143 19.6557 24.6179 19.693C24.4364 19.7013 24.2649 19.6352 24.1362 19.5064C24.0074 19.3776 23.9412 19.2065 23.9496 19.0245C23.9757 18.4629 23.7667 17.9245 23.3932 17.5272C23.3822 17.5152 23.371 17.5034 23.3591 17.4922C23.2108 17.3418 23.0389 17.2124 22.8457 17.1125C22.684 17.0289 22.5689 16.8859 22.5218 16.7101C22.4747 16.5341 22.5028 16.3528 22.6012 16.1996C23.0311 15.5289 23.0311 14.6623 22.6012 13.9916C22.5029 13.8384 22.4747 13.657 22.5218 13.4811C22.5689 13.3053 22.684 13.1623 22.8458 13.0787C23.5534 12.7128 23.9867 11.9623 23.9497 11.1665C23.9412 10.9846 24.0075 10.8136 24.1363 10.6848C24.265 10.556 24.4364 10.4898 24.618 10.4982C25.4143 10.5352 26.1643 10.1019 26.5301 9.39426C26.6137 9.23244 26.7566 9.11741 26.9326 9.07034C27.1084 9.02328 27.2898 9.05136 27.443 9.14964C28.1137 9.57966 28.9804 9.57966 29.6509 9.14964C29.8042 9.05145 29.9855 9.02319 30.1614 9.07034C30.3373 9.11741 30.4802 9.23253 30.5639 9.39426C30.9298 10.1019 31.6802 10.5354 32.476 10.4982C32.658 10.4899 32.829 10.556 32.9577 10.6848C33.0865 10.8136 33.1528 10.9846 33.1443 11.1665C33.1073 11.9623 33.5406 12.7128 34.2483 13.0787C34.4101 13.1623 34.5251 13.3052 34.5722 13.4811C34.6193 13.657 34.5911 13.8384 34.4929 13.9915C34.0629 14.6622 34.0629 15.5289 34.4929 16.1995C34.5911 16.3528 34.6194 16.5341 34.5722 16.7101Z" fill="#13385D"/>
<path d="M31.8906 13.1825C31.616 12.9079 31.1708 12.9079 30.8962 13.1825L28.5625 15.5163L27.6334 14.5872C27.3589 14.3126 26.9137 14.3126 26.639 14.5872C26.3644 14.8618 26.3644 15.307 26.639 15.5816L28.0652 17.0079C28.2026 17.1452 28.3825 17.2139 28.5624 17.2139C28.7423 17.2139 28.9223 17.1452 29.0596 17.0079L31.8906 14.1769C32.1652 13.9023 32.1652 13.4571 31.8906 13.1825Z" fill="#13385D"/>
<path d="M8.58305 8.50289C8.45227 8.37211 8.27086 8.29688 8.08595 8.29688C7.90102 8.29688 7.71961 8.37211 7.58883 8.50289C7.45805 8.63367 7.38281 8.81508 7.38281 9C7.38281 9.18495 7.45805 9.3663 7.58883 9.49707C7.71961 9.62793 7.90102 9.70308 8.08595 9.70308C8.27086 9.70308 8.45227 9.62793 8.58305 9.49707C8.71383 9.3663 8.78906 9.18495 8.78906 9C8.78906 8.81508 8.71383 8.63367 8.58305 8.50289Z" fill="#13385D"/>
<path d="M14.1327 8.29688H10.7108C10.3224 8.29688 10.0076 8.61167 10.0076 9C10.0076 9.38835 10.3224 9.70308 10.7108 9.70308H14.1327C14.521 9.70308 14.8358 9.38835 14.8358 9C14.8358 8.61167 14.521 8.29688 14.1327 8.29688Z" fill="#13385D"/>
<path d="M21.2936 20.6719H13.2552C12.8669 20.6719 12.5521 20.9866 12.5521 21.375C12.5521 21.7633 12.8669 22.078 13.2552 22.078H21.2935C21.6818 22.078 21.9965 21.7633 21.9965 21.375C21.9965 20.9866 21.6818 20.6719 21.2936 20.6719Z" fill="#13385D"/>
</svg>
