<svg width="36" height="36" viewBox="0 0 36 36" fill="none" xmlns="http://www.w3.org/2000/svg">
<g clip-path="url(#clip0_37_1280)">
<path d="M7.00051 9.06585C6.71926 8.79813 6.27411 8.80916 6.00642 9.0906L4.00776 11.1908C3.74943 11.4623 3.74943 11.8888 4.00776 12.1602L6.00642 14.2605C6.27052 14.5379 6.72299 14.5493 7.00051 14.2852C7.28184 14.0175 7.29288 13.5724 7.02519 13.2911L5.48779 11.6755L7.02519 10.0599C7.29288 9.77856 7.28184 9.3336 7.00051 9.06585Z" fill="#13385D"/>
<path d="M13.9298 14.2851C14.2073 14.5492 14.6598 14.5379 14.9239 14.2604L16.9226 12.1601C17.1809 11.8887 17.1809 11.4622 16.9226 11.1907L14.9239 9.09049C14.6561 8.80915 14.2112 8.79818 13.9298 9.06583C13.6485 9.33358 13.6374 9.77854 13.9051 10.0599L15.4426 11.6755L13.9051 13.2911C13.6375 13.5723 13.6485 14.0174 13.9298 14.2851Z" fill="#13385D"/>
<path d="M8.84403 14.3746C9.17046 14.5757 9.61056 14.4708 9.81144 14.1447L12.3989 9.9441C12.6026 9.61344 12.4997 9.18036 12.169 8.97662C11.8383 8.77299 11.4052 8.87586 11.2016 9.20655L8.6141 13.4071C8.41047 13.7378 8.51341 14.1709 8.84403 14.3746Z" fill="#13385D"/>
<path d="M16.545 16.2437H4.51714C4.1288 16.2437 3.81401 16.5586 3.81401 16.9468C3.81401 17.3351 4.1288 17.6499 4.51714 17.6499H16.545C16.9333 17.6499 17.2481 17.3351 17.2481 16.9468C17.2481 16.5586 16.9333 16.2437 16.545 16.2437Z" fill="#13385D"/>
<path d="M4.51714 19.8118C4.1288 19.8118 3.81401 20.1267 3.81401 20.5149C3.81401 20.9032 4.1288 21.218 4.51714 21.218H13.1198C13.5082 21.218 13.823 20.9032 13.823 20.5149C13.823 20.1267 13.5082 19.8118 13.1198 19.8118H4.51714Z" fill="#13385D"/>
<path d="M16.189 20.5149C16.189 20.9032 16.5038 21.218 16.8922 21.218H22.8987C23.2871 21.218 23.6019 20.9032 23.6019 20.5149C23.6019 20.1267 23.2871 19.8118 22.8987 19.8118H16.8922C16.5038 19.8118 16.189 20.1266 16.189 20.5149Z" fill="#13385D"/>
<path d="M11.7296 6.73084C11.9777 7.3268 12.8629 7.28525 13.0515 6.66615C13.2315 6.07503 12.5808 5.55028 12.0408 5.84553C11.7309 6.01505 11.5935 6.40437 11.7296 6.73084Z" fill="#13385D"/>
<path d="M19.1095 17.3369C19.3226 17.6549 19.7653 17.7439 20.0847 17.5318C20.4043 17.3195 20.4898 16.8748 20.2788 16.5566C20.0667 16.2367 19.622 16.1516 19.3036 16.3624C18.9843 16.5738 18.8976 17.0192 19.1095 17.3369Z" fill="#13385D"/>
<path d="M35.1669 10.4557L34.5726 10.1125C34.3812 10.0018 34.3806 9.65248 34.5725 9.54196L35.1669 9.19861C35.9627 8.73896 36.2366 7.71766 35.7772 6.92199L34.6683 5.00131C34.2151 4.21661 33.1775 3.93774 32.3919 4.39141L31.7967 4.73482C31.5987 4.84935 31.3031 4.68236 31.3031 4.44991V3.76266C31.3031 2.84366 30.5554 2.09595 29.6364 2.09595H27.4188C26.4998 2.09595 25.7521 2.84366 25.7521 3.76266V4.44991C25.7521 4.68257 25.4564 4.84915 25.2582 4.73467L24.6635 4.39154C23.8776 3.93753 22.8399 4.21674 22.3869 5.00131L21.9495 5.75872H15.5269C15.1385 5.75872 14.8237 6.07359 14.8237 6.46186C14.8237 6.85013 15.1385 7.165 15.5269 7.165H21.162C20.8755 7.91623 21.189 8.79473 21.8881 9.19879L22.4825 9.54205C22.6739 9.6523 22.6738 10.0018 22.4827 10.1123L21.8867 10.4559C21.0915 10.9163 20.8183 11.9375 21.2777 12.7324L22.3864 14.652C22.8395 15.4372 23.8775 15.7168 24.6637 15.2627L25.2584 14.9189C25.4562 14.8047 25.7521 14.9716 25.7521 15.2039V15.8911C25.7521 16.7942 26.498 17.5449 27.3943 17.5577L27.888 17.5881V23.4H1.40627V7.82482C1.40627 7.44245 1.65356 7.165 1.99424 7.165H9.21294C9.60129 7.165 9.91611 6.85013 9.91611 6.46186C9.91611 6.07359 9.60129 5.75872 9.21294 5.75872H1.99424C0.875966 5.75872 0 6.66633 0 7.82482V26.462V26.4621C0 27.5042 0.913167 28.3845 1.99409 28.3845H11.3991L11.0565 31.3258C10.9804 31.9931 10.417 32.4957 9.74565 32.4957C9.7452 32.4957 9.74466 32.4957 9.74412 32.4957C9.73503 32.4949 9.72495 32.4959 9.71523 32.4963C9.70947 32.4965 8.9114 32.4978 8.9114 32.4978C8.52306 32.4978 8.20827 32.8126 8.20827 33.2009C8.20827 33.5892 8.52306 33.9041 8.9114 33.9041H21.1007C21.4889 33.9041 21.8038 33.5892 21.8038 33.2009C21.8038 32.8126 21.4889 32.4978 21.1007 32.4978C21.1007 32.4978 20.3027 32.4965 20.2968 32.4963C20.2875 32.4959 20.2782 32.4957 20.2689 32.4957C20.268 32.4957 20.2674 32.4957 20.2664 32.4957C19.5952 32.4957 19.0317 31.9931 18.9556 31.3258C18.9555 31.3253 18.9555 31.3247 18.9554 31.3242L18.6129 28.3845H27.3C28.3812 28.3845 29.2947 27.5042 29.2947 26.4621L29.2944 17.5578H29.6362C30.5552 17.5578 31.3029 16.8101 31.3029 15.8911V15.2039C31.3029 14.9718 31.5984 14.8045 31.7964 14.9188L32.3915 15.2629C33.1775 15.7166 34.2152 15.4371 34.6681 14.6525L35.7772 12.7323C36.2365 11.9366 35.9627 10.9153 35.1669 10.4557ZM27.8881 24.8062V26.462C27.8881 26.7057 27.6367 26.9782 27.3001 26.9782H1.9943C1.65778 26.9782 1.40634 26.7057 1.40634 26.462V24.8062H27.8881ZM17.5585 31.4859C17.6003 31.8513 17.713 32.1932 17.8817 32.4978H12.1307C12.2994 32.1933 12.4119 31.852 12.4535 31.4869L12.8149 28.3845H17.1972L17.5585 31.4859ZM34.5594 12.0291L33.4504 13.9494C33.3791 14.0726 33.2186 14.1166 33.0951 14.0451L32.4998 13.701C31.3767 13.0526 29.8967 13.9064 29.8967 15.2038V15.891C29.8967 16.0347 29.7798 16.1515 29.6363 16.1515H27.4188C27.2767 16.1515 27.1586 16.0329 27.1586 15.8909V15.204C27.1586 13.9063 25.6788 13.0522 24.5549 13.701L23.9599 14.0448C23.8376 14.1154 23.6757 14.0719 23.6047 13.9492L22.4957 12.029C22.4239 11.9047 22.4668 11.7452 22.5907 11.6735L23.1862 11.33C24.2984 10.6871 24.3004 8.96636 23.186 8.32412L22.5915 7.98071C22.4725 7.90638 22.4233 7.75029 22.4958 7.62499L23.6047 5.70437C23.6762 5.58062 23.8369 5.53793 23.9605 5.6093L24.5554 5.95251C25.6786 6.60122 27.1585 5.74733 27.1585 4.44976V3.76252C27.1585 3.61894 27.2753 3.50208 27.4189 3.50208H29.6364C29.7799 3.50208 29.8967 3.61894 29.8967 3.76252V4.44976C29.8967 5.74712 31.3761 6.60122 32.4998 5.95258L33.095 5.60917C33.2184 5.53766 33.3792 5.58083 33.4505 5.7043L34.5595 7.62499C34.6312 7.74923 34.5882 7.90871 34.4636 7.98071L33.8699 8.32377C32.7577 8.9646 32.7562 10.6868 33.8692 11.33L34.4637 11.6734C34.588 11.7454 34.631 11.905 34.5594 12.0291Z" fill="#13385D"/>
<path d="M28.5272 6.89844C26.9123 6.89844 25.5986 8.21225 25.5986 9.82701C25.5986 11.4418 26.9124 12.7556 28.5272 12.7556C30.1423 12.7556 31.4563 11.4418 31.4563 9.82701C31.4563 8.23032 30.1241 6.8983 28.5272 6.89844ZM28.5272 11.3494C27.6878 11.3494 27.0049 10.6664 27.0049 9.8271C27.0049 8.98767 27.6878 8.30479 28.5272 8.30479C29.3553 8.31871 30.0501 8.98894 30.0501 9.8271C30.0501 10.6664 29.3669 11.3494 28.5272 11.3494Z" fill="#13385D"/>
</g>
<defs>
<clipPath id="clip0_37_1280">
<rect width="36" height="36" fill="white"/>
</clipPath>
</defs>
</svg>
