<svg width="34" height="36" viewBox="0 0 34 36" fill="none" xmlns="http://www.w3.org/2000/svg">
<g clip-path="url(#clip0_37_1297)">
<path d="M31.0833 12.5557H28.2984V4.24094C28.5744 4.11294 28.7508 3.8544 28.7508 3.55604C28.7508 3.20251 28.5037 2.90407 28.1359 2.81358L16.8061 0.0260541C16.6649 -0.00863775 16.5157 -0.00870812 16.3747 0.0259837L5.04474 2.81358C4.67692 2.90407 4.42986 3.20243 4.42986 3.55604C4.42986 3.90965 4.67699 4.208 5.04474 4.2985L7.52946 4.9098V12.5558H2.09727C0.940833 12.5558 0 13.4966 0 14.6531V15.55C0 15.8416 0.236228 16.0778 0.527766 16.0778C0.819304 16.0778 1.05553 15.8416 1.05553 15.55V14.6531C1.05553 14.0786 1.52285 13.6113 2.09727 13.6113H27.2429V14.3419H27.2356C26.4551 14.3419 25.8199 14.9768 25.8199 15.7575V17.269C25.8199 17.7378 26.2013 18.1193 26.6701 18.1193H28.8711C29.3398 18.1193 29.7212 17.7378 29.7212 17.269V15.7575C29.7212 14.9768 29.0862 14.3419 28.3056 14.3419H28.2983V13.6113H31.0833C31.6577 13.6113 32.125 14.0786 32.125 14.6531V21.1838C32.125 21.502 31.9104 21.7823 31.6032 21.8654L29.2402 22.5046V21.4924C29.2402 20.3526 28.3129 19.4252 27.1732 19.4252H24.0339C22.8941 19.4252 21.9668 20.3526 21.9668 21.4924V24.4722L17.8286 25.5915C17.0184 25.8106 16.1621 25.8106 15.352 25.5915L11.2841 24.4911V21.4924C11.2841 20.3526 10.3568 19.4252 9.21708 19.4252H6.07775C4.93799 19.4252 4.01067 20.3526 4.01067 21.4924V22.5236L1.57732 21.8654C1.27016 21.7823 1.05553 21.502 1.05553 21.1838V17.7991C1.05553 17.5076 0.819304 17.2714 0.527766 17.2714C0.236228 17.2714 0 17.5076 0 17.7991V21.1838C0 21.9423 0.489344 22.6135 1.20148 22.8526V33.0097C1.20148 34.3499 2.29184 35.4403 3.63208 35.4403H5.13826C5.35824 35.7768 5.73773 36.0001 6.16889 36.0001H9.12582C9.55701 36.0001 9.93654 35.7768 10.1565 35.4403H23.0944C23.3144 35.7768 23.6939 36.0001 24.125 36.0001H27.082C27.5133 36.0001 27.8927 35.7768 28.1127 35.4403H29.5484C30.8887 35.4403 31.9791 34.3499 31.9791 33.0097V22.8526C32.6912 22.6134 33.1806 21.9423 33.1806 21.1837V14.6529C33.1806 13.4966 32.2398 12.5557 31.0833 12.5557ZM28.6657 15.7574V17.0636H26.8755V15.7574C26.8755 15.5588 27.0371 15.3973 27.2357 15.3973H28.3056C28.5042 15.3973 28.6657 15.5588 28.6657 15.7574ZM16.374 7.08581C16.4449 7.10333 16.5178 7.11212 16.5905 7.11212C16.6631 7.11212 16.7356 7.1034 16.8059 7.08602L19.161 6.5066C19.4441 6.43693 19.617 6.15103 19.5474 5.86801C19.4778 5.58506 19.1919 5.41223 18.9088 5.48161L16.5903 6.05202L6.44537 3.55604L16.5903 1.06006L26.7353 3.55604L21.1109 4.93977C20.8279 5.00944 20.6549 5.29535 20.7246 5.57837C20.7941 5.86132 21.0802 6.03415 21.3631 5.96477L24.5957 5.16946V9.75978H8.58493V5.16946L16.374 7.08581ZM8.58493 10.8154H24.5956V12.5557H8.58493V10.8154ZM25.6512 12.5557V4.90973L27.2429 4.51812V12.5557H25.6512ZM23.0223 21.4922C23.0223 20.9344 23.4761 20.4807 24.0339 20.4807H27.1732C27.731 20.4807 28.1847 20.9344 28.1847 21.4922V25.4643C28.1847 25.5629 28.1045 25.6431 28.0059 25.6431H23.2011C23.1026 25.6431 23.0223 25.5629 23.0223 25.4643V21.4922ZM5.06621 21.4922C5.06621 20.9344 5.51994 20.4807 6.07775 20.4807H9.21708C9.7749 20.4807 10.2286 20.9344 10.2286 21.4922V25.4643C10.2286 25.5629 10.1484 25.6431 10.0498 25.6431H9.82917H5.46555H5.24494C5.14643 25.6431 5.06621 25.5629 5.06621 25.4643V21.4922ZM2.25708 33.0096V23.1427L4.01074 23.617V25.4643C4.01074 26.0387 4.40565 26.5213 4.93785 26.6584V34.3847H3.63216C2.87386 34.3847 2.25708 33.7678 2.25708 33.0096ZM9.12591 34.9445H6.16896C6.07213 34.9445 5.99332 34.8656 5.99332 34.7689V26.6986H9.3015V34.7689C9.3015 34.8656 9.22275 34.9445 9.12591 34.9445ZM27.082 34.9445H24.125C24.0282 34.9445 23.9495 34.8656 23.9495 34.7689V29.9091C23.9495 29.6175 23.7133 29.3813 23.4217 29.3813C23.1302 29.3813 22.8939 29.6175 22.8939 29.9091V34.3847H10.357V26.6584C10.8521 26.5308 11.2282 26.1043 11.2782 25.5829L15.0764 26.6104C15.5716 26.7443 16.0809 26.8112 16.5903 26.8112C17.0997 26.8112 17.6089 26.7443 18.1041 26.6104L21.9718 25.5641C22.0145 26.0941 22.3929 26.5294 22.8939 26.6585V27.66C22.8939 27.9515 23.1302 28.1877 23.4217 28.1877C23.7133 28.1877 23.9495 27.9515 23.9495 27.66V26.6987H27.2577V34.7689C27.2577 34.8656 27.1788 34.9445 27.082 34.9445ZM29.5485 34.3847H28.3132V26.6584C28.8454 26.5213 29.2403 26.0387 29.2403 25.4643V23.598L30.9236 23.1427V33.0096C30.9236 33.7678 30.3068 34.3847 29.5485 34.3847Z" fill="#13385D"/>
<path d="M7.64747 24.7486C8.57761 24.7486 9.33425 23.9918 9.33425 23.0618C9.33425 22.1317 8.57761 21.375 7.64747 21.375C6.71741 21.375 5.96074 22.1317 5.96074 23.0618C5.96074 23.9919 6.71741 24.7486 7.64747 24.7486ZM7.64747 22.4306C7.99552 22.4306 8.27875 22.7138 8.27875 23.0619C8.27875 23.41 7.99559 23.6931 7.64747 23.6931C7.29936 23.6931 7.01627 23.41 7.01627 23.0619C7.01627 22.7138 7.29943 22.4306 7.64747 22.4306Z" fill="#13385D"/>
<path d="M25.6036 24.7486C26.5337 24.7486 27.2903 23.9918 27.2903 23.0618C27.2903 22.1317 26.5337 21.375 25.6036 21.375C24.6735 21.375 23.9168 22.1317 23.9168 23.0618C23.9168 23.9919 24.6735 24.7486 25.6036 24.7486ZM25.6036 22.4306C25.9517 22.4306 26.2348 22.7138 26.2348 23.0619C26.2348 23.41 25.9517 23.6931 25.6036 23.6931C25.2555 23.6931 24.9723 23.41 24.9723 23.0619C24.9723 22.7138 25.2555 22.4306 25.6036 22.4306Z" fill="#13385D"/>
<path d="M16.5903 21.7839C16.9789 21.7839 17.294 21.4688 17.294 21.0802C17.294 20.6916 16.9789 20.3765 16.5903 20.3765C16.2017 20.3765 15.8867 20.6916 15.8867 21.0802C15.8867 21.4688 16.2017 21.7839 16.5903 21.7839Z" fill="#13385D"/>
</g>
<defs>
<clipPath id="clip0_37_1297">
<rect width="33.3" height="36" fill="white"/>
</clipPath>
</defs>
</svg>
