<svg width="36" height="36" viewBox="0 0 36 36" fill="none" xmlns="http://www.w3.org/2000/svg">
<g clip-path="url(#clip0_37_1263)">
<path d="M36.0008 16.4923L36.0007 4.86056C36.0007 2.18039 33.8203 0 31.1401 0H19.5085C19.3096 0 19.1189 0.0790313 18.9782 0.219657L16.7045 2.49335C16.3158 2.46101 15.9235 2.43485 15.5282 2.41573C10.5258 2.17343 6.25703 3.046 4.65334 4.63858C4.0109 5.27667 3.89706 5.9182 3.91457 6.34388C3.97813 7.87964 5.81568 9.261 8.99936 10.1984L1.4196 17.7783C0.504766 18.6932 0.000976562 19.9138 0.000976562 21.2153C0.000976562 22.5168 0.504836 23.7373 1.4196 24.6521L11.2675 34.5001H10.5009C10.0868 34.5001 9.75097 34.8358 9.75097 35.25C9.75097 35.6642 10.0868 36.0001 10.5009 36.0001H25.5008C25.915 36.0001 26.2508 35.6643 26.2508 35.25C26.2508 34.8358 25.915 34.5001 25.5008 34.5001H18.3038L35.7811 17.0228C35.9219 16.882 36.0008 16.6913 36.0008 16.4923ZM5.41335 6.28186C5.41061 6.21443 5.4021 6.00905 5.71042 5.70283C6.74458 4.67578 10.1778 3.6843 15.2907 3.90712L10.2214 8.97652C6.74352 8.10155 5.43853 6.89 5.41335 6.28186ZM17.1619 33.5206C16.5305 34.1521 15.6865 34.5 14.7857 34.5C13.8848 34.5 13.0408 34.1522 12.4095 33.5206L2.48019 23.5913C1.84865 22.9599 1.50081 22.1161 1.50081 21.2152C1.50081 20.3143 1.84865 19.4704 2.48019 18.8389L17.2662 4.05295C19.4365 4.27992 21.4401 4.7165 23.0356 5.31998C24.0937 5.72027 24.8073 6.13364 25.255 6.5056C24.7145 7.04848 24.3797 7.79646 24.3797 8.62137C24.3797 8.85403 24.4072 9.08037 24.4576 9.2979C24.461 9.31635 24.4655 9.33462 24.4704 9.3528C24.4723 9.36063 24.474 9.36855 24.476 9.37629C24.4762 9.37692 24.4764 9.37755 24.4767 9.37818C24.8128 10.6671 25.9869 11.6213 27.3797 11.6213C29.0337 11.6213 30.3796 10.2756 30.3796 8.6213C30.3796 6.96705 29.0338 5.6212 27.3797 5.6212C27.1136 5.6212 26.8557 5.65643 26.6099 5.72175C25.9747 5.05055 24.9519 4.44108 23.5662 3.91697C22.1539 3.38273 20.4533 2.97155 18.6108 2.70844L19.8191 1.50005H31.1401C32.9931 1.50005 34.5006 3.00762 34.5006 4.86063L34.5008 16.1817L17.1619 33.5206ZM27.3742 7.34492C27.3712 7.27038 27.3635 7.19635 27.3524 7.12258C27.3615 7.12245 27.3704 7.12118 27.3797 7.12118C28.2067 7.12118 28.8795 7.79414 28.8795 8.62123C28.8795 9.4482 28.2067 10.1211 27.3797 10.1211C26.8638 10.1211 26.4082 9.85932 26.1381 9.4617C27.184 8.71868 27.398 7.91993 27.3742 7.34492Z" fill="#13385D"/>
<path d="M32.1646 6.33726C31.7694 6.46108 31.5492 6.8819 31.6731 7.27713C31.8094 7.7125 31.8786 8.16468 31.8786 8.62122C31.8786 11.1025 29.86 13.121 27.3789 13.121C24.8975 13.121 22.879 11.1025 22.879 8.62122C22.879 8.20701 22.5433 7.8712 22.129 7.8712C21.7148 7.8712 21.379 8.20693 21.379 8.62122C21.379 11.9295 24.0704 14.621 27.3788 14.621C30.687 14.621 33.3785 11.9295 33.3785 8.62122C33.3785 8.01245 33.2863 7.40931 33.1043 6.82875C32.9806 6.43345 32.5598 6.21337 32.1646 6.33726Z" fill="#13385D"/>
<path d="M31.1654 5.73474C31.3522 5.73474 31.5394 5.66527 31.685 5.52556C31.9836 5.23861 31.9931 4.76386 31.7062 4.46511C31.5832 4.33693 31.4537 4.21353 31.3214 4.09843C31.0089 3.82639 30.5352 3.85923 30.2631 4.17163C29.9912 4.48402 30.0239 4.95771 30.3364 5.22976C30.4352 5.31574 30.5321 5.40821 30.6245 5.50426C30.7717 5.65761 30.9683 5.73474 31.1654 5.73474Z" fill="#13385D"/>
<path d="M15.5559 18.3751L18.858 21.6772C19.1416 21.9608 19.5996 21.9625 19.881 21.6811C20.1624 21.3996 20.1607 20.9416 19.8771 20.658L16.5844 17.3653C18.5463 15.9957 21.1504 16.8354 22.425 18.11C22.7086 18.3936 23.1666 18.3953 23.4481 18.1138C23.7295 17.8325 23.7278 17.3744 23.4443 17.0909C21.4497 15.0963 17.9817 14.4509 15.5461 16.3271L14.9998 15.7807C14.7162 15.4971 14.2582 15.4954 13.9767 15.7768C13.6953 16.0582 13.697 16.5162 13.9805 16.7998L14.5212 17.3406C12.515 19.8307 13.1377 23.0913 15.2908 25.2443C15.5743 25.5279 16.0323 25.5296 16.3138 25.2481C16.5952 24.9667 16.5936 24.5087 16.31 24.2252C15.2414 23.1566 13.8395 20.6589 15.5559 18.3751Z" fill="#13385D"/>
</g>
<defs>
<clipPath id="clip0_37_1263">
<rect width="36" height="36" fill="white"/>
</clipPath>
</defs>
</svg>
