<svg width="40" height="40" viewBox="0 0 40 40" fill="none" xmlns="http://www.w3.org/2000/svg">
<g clip-path="url(#clip0_37_1259)">
<path d="M25.1279 22.8108C25.5594 22.8108 25.9092 22.461 25.9092 22.0295C25.9092 21.5981 25.5594 21.2483 25.1279 21.2483C24.6965 21.2483 24.3467 21.5981 24.3467 22.0295C24.3467 22.461 24.6965 22.8108 25.1279 22.8108Z" fill="#13385D"/>
<path d="M38.2146 2.02832H10.732C9.7475 2.02832 8.94656 2.82926 8.94656 3.81372V6.11403C8.645 6.04332 8.33117 6.00473 8.00836 6.00473C5.74172 6.00473 3.89766 7.84879 3.89766 10.1155C3.89766 11.1604 4.29023 12.115 4.93477 12.841C2.10742 13.5226 0 16.0716 0 19.1052V24.1544C0 26.1673 1.44539 27.8489 3.35289 28.2158V35.2527C3.35289 36.752 4.57266 37.9716 6.07203 37.9716C6.82906 37.9716 7.51484 37.6607 8.00836 37.1597C8.50187 37.6606 9.18758 37.9716 9.94469 37.9716C11.444 37.9716 12.6638 36.752 12.6638 35.2527V22.8123H21.6028C22.0352 22.8123 22.3856 22.4618 22.3856 22.0294C22.3856 21.5971 22.0352 21.2466 21.6028 21.2466H12.6637V18.0984H19.4018C20.9011 18.0984 22.1209 16.8786 22.1209 15.3793C22.1209 15.0657 22.0669 14.7646 21.9688 14.4841L27.5564 11.8716C27.948 11.6885 28.1171 11.2226 27.934 10.831C27.7509 10.4392 27.2849 10.2702 26.8934 10.4534L21.0233 13.198C20.5702 12.8604 20.0091 12.6602 19.4019 12.6602H11.2331C11.7872 11.9597 12.1191 11.0759 12.1191 10.1154C12.1191 8.79043 11.4884 7.61067 10.5123 6.8584V3.81372C10.5123 3.69246 10.6109 3.59387 10.7322 3.59387H38.2148C38.336 3.59387 38.4346 3.69246 38.4346 3.81372V21.0269C38.4346 21.1481 38.336 21.2467 38.2148 21.2467H28.653C28.2207 21.2467 27.8702 21.5972 27.8702 22.0295C27.8702 22.4619 28.2207 22.8123 28.653 22.8123H38.2148C39.1992 22.8123 40.0002 22.0114 40.0002 21.0269V3.81372C40 2.82926 39.1991 2.02832 38.2146 2.02832ZM3.35289 26.6024C2.31734 26.2703 1.56555 25.2987 1.56555 24.1544V23.5051H3.35289V26.6024ZM11.0982 35.2528C11.0982 35.8888 10.5807 36.4062 9.94461 36.4062C9.30859 36.4062 8.79109 35.8888 8.79109 35.2528V28.0949C8.79109 27.6625 8.44063 27.312 8.00828 27.312C7.57594 27.312 7.22547 27.6625 7.22547 28.0949V35.2528C7.22547 35.8888 6.70797 36.4062 6.07188 36.4062C5.43586 36.4062 4.91836 35.8888 4.91836 35.2528V25.6285H11.0981V35.2528H11.0982ZM18.125 14.2259H19.4018C20.0378 14.2259 20.5553 14.7434 20.5553 15.3794C20.5553 16.0155 20.0378 16.533 19.4018 16.533H18.125V14.2259ZM16.5594 14.2259V16.533H11.8811C11.4545 16.533 11.0982 16.889 11.0982 17.316V24.0628H4.91844V18.6069C4.91844 18.1745 4.56797 17.8242 4.13562 17.8242C3.70328 17.8242 3.35281 18.1745 3.35281 18.6069V21.9396H1.56555V19.1054C1.56555 16.415 3.75437 14.2263 6.44469 14.2263H7.25047V19.6875C7.25047 20.119 7.60023 20.4688 8.03172 20.4688C8.4632 20.4688 8.81297 20.119 8.81297 19.6875V14.2261L16.5594 14.2259ZM10.5535 10.1155C10.5535 11.5188 9.41172 12.6606 8.00836 12.6606C6.60492 12.6606 5.4632 11.5189 5.4632 10.1155C5.4632 8.712 6.605 7.57028 8.00836 7.57028C9.41172 7.57028 10.5535 8.712 10.5535 10.1155Z" fill="#13385D"/>
</g>
<defs>
<clipPath id="clip0_37_1259">
<rect width="40" height="40" fill="white"/>
</clipPath>
</defs>
</svg>
