<svg width="36" height="36" viewBox="0 0 36 36" fill="none" xmlns="http://www.w3.org/2000/svg">
<path d="M7.03125 24.3984C7.41957 24.3984 7.73438 24.0836 7.73438 23.6953C7.73438 23.307 7.41957 22.9922 7.03125 22.9922C6.64293 22.9922 6.32812 23.307 6.32812 23.6953C6.32812 24.0836 6.64293 24.3984 7.03125 24.3984Z" fill="#13385D"/>
<path d="M7.03125 30.7266C7.41957 30.7266 7.73438 30.4117 7.73438 30.0235C7.73438 29.6351 7.41957 29.3203 7.03125 29.3203C6.64293 29.3203 6.32812 29.6351 6.32812 30.0235C6.32812 30.4117 6.64293 30.7266 7.03125 30.7266Z" fill="#13385D"/>
<path d="M35.2969 12.7969C35.6852 12.7969 36 12.482 36 12.0938V0.703125C36 0.31486 35.6852 0 35.2969 0H30.0235C29.6351 0 29.3203 0.31486 29.3203 0.703125C29.3203 1.09139 29.6351 1.40625 30.0235 1.40625H34.5938V11.3906H19.125V1.40625H23.6953C24.0836 1.40625 24.3985 1.09139 24.3985 0.703125C24.3985 0.31486 24.0836 0 23.6953 0H18.4219C18.0336 0 17.7188 0.31486 17.7188 0.703125V12.0938C17.7188 12.482 18.0336 12.7969 18.4219 12.7969H26.1562V15.6094H10.5201C10.7602 15.1954 10.8985 14.7152 10.8985 14.2031V12.4729C12.7859 11.7535 14.0625 9.93519 14.0625 7.875C14.0625 7.48673 13.7477 7.17188 13.3594 7.17188H11.25C10.7316 7.17188 10.2185 7.25428 9.72999 7.41262C9.45585 5.8076 8.69358 4.32422 7.52836 3.15907C7.25379 2.88457 6.80864 2.88457 6.534 3.15907C5.36892 4.32422 4.60667 5.8076 4.33252 7.41262C3.84398 7.25428 3.33092 7.17188 2.8125 7.17188H0.703125C0.314789 7.17188 0 7.48673 0 7.875C0 9.93501 1.27632 11.7531 3.16406 12.4728V14.2031C3.16406 14.7152 3.3023 15.1954 3.54242 15.6094H0.703125C0.314789 15.6094 0 15.9242 0 16.3125V35.2969C0 35.6852 0.314789 36 0.703125 36C1.09146 36 1.40625 35.6852 1.40625 35.2969V33.8906H12.6562V35.2969C12.6562 35.6852 12.9711 36 13.3594 36C13.7477 36 14.0625 35.6852 14.0625 35.2969V21.2344H34.5938V35.2969C34.5938 35.6852 34.9086 36 35.2969 36C35.6852 36 36 35.6852 36 35.2969V16.3125C36 15.9242 35.6852 15.6094 35.2969 15.6094H27.5625V12.7969H35.2969ZM12.5857 8.57812C12.3219 9.87642 11.3404 10.9402 10.0208 11.2797C9.73368 11.3533 9.43749 11.3906 9.14058 11.3906H7.80602C8.00578 10.4192 8.61258 9.55908 9.48744 9.05121C10.0202 8.74167 10.6298 8.57812 11.25 8.57812H12.5857ZM7.03125 4.71087C7.7999 5.67879 8.27452 6.84429 8.40199 8.07996C7.84223 8.47821 7.37782 8.98629 7.03132 9.56457C6.68475 8.98636 6.2204 8.47821 5.66058 8.07996C5.78798 6.84429 6.2626 5.67879 7.03125 4.71087ZM1.47677 8.57812H2.8125C3.43273 8.57812 4.04227 8.74167 4.57517 9.0513C5.44999 9.55908 6.05672 10.4192 6.25648 11.3906H4.92188C4.62502 11.3906 4.32886 11.3533 4.0424 11.28C2.72222 10.9402 1.74058 9.87642 1.47677 8.57812ZM4.57031 14.2031V12.7839C4.68724 12.7921 4.80452 12.7969 4.92188 12.7969C4.92188 12.7969 9.37521 12.7922 9.49221 12.7839V14.2031C9.49221 14.9785 8.86135 15.6094 8.08594 15.6094H5.97656C5.20115 15.6094 4.57031 14.9785 4.57031 14.2031ZM12.6562 26.1562H1.40625V21.2344H12.6562V26.1562ZM1.40625 27.5625H12.6562V32.4844H1.40625V27.5625ZM34.5938 17.0156V19.8281H1.40625V17.0156" fill="#13385D"/>
<path d="M26.8594 1.40625C27.2477 1.40625 27.5625 1.09145 27.5625 0.703125C27.5625 0.3148 27.2477 0 26.8594 0C26.4711 0 26.1562 0.3148 26.1562 0.703125C26.1562 1.09145 26.4711 1.40625 26.8594 1.40625Z" fill="#13385D"/>
</svg>
