<?xml version="1.0" encoding="UTF-8"?>
<!DOCTYPE svg PUBLIC "-//W3C//DTD SVG 1.1//EN" "http://www.w3.org/Graphics/SVG/1.1/DTD/svg11.dtd">
<!-- Creator: CorelDRAW 2019 (64-Bit) -->
<svg xmlns="http://www.w3.org/2000/svg" xml:space="preserve" width="1.9685in" height="1.9685in" version="1.1" style="shape-rendering:geometricPrecision; text-rendering:geometricPrecision; image-rendering:optimizeQuality; fill-rule:evenodd; clip-rule:evenodd"
viewBox="0 0 1968.5 1968.5"
 xmlns:xlink="http://www.w3.org/1999/xlink"
 xmlns:xodm="http://www.corel.com/coreldraw/odm/2003">
 <defs>
  <style type="text/css">
   <![CDATA[
    .fil0 {fill:#225A93}
    .fil1 {fill:#FEFEFE;fill-rule:nonzero}
   ]]>
  </style>
 </defs>
 <g id="Layer_x0020_1">
  <metadata id="CorelCorpID_0Corel-Layer"/>
  <circle class="fil0" cx="981.84" cy="986.67" r="977.24"/>
  <path class="fil1" d="M462.69 849.3l-49.63 0 0 -92 197.53 0 0 244.7c0,41.93 -23.3,78.23 -71.92,107.64 -48.62,30.04 -106.36,45.06 -175.24,45.06 -67.87,0 -126.63,-15.02 -174.23,-45.06 -48.63,-29.41 -72.93,-65.71 -72.93,-107.64l148.91 0c0,16.9 9.11,31.29 28.36,43.18 19.24,11.89 42.54,17.52 69.9,17.52 27.35,0 50.65,-5.63 69.89,-17.52 19.25,-11.89 29.38,-26.28 29.38,-43.18l0 -152.7zm741.5 -92l0 92 -346.44 0 0 213.41 198.54 0 0 -30.04 147.9 0 0 122.04 -494.33 0 0 -305.41 -49.63 0 0 -92 543.97 0zm-197.53 244.7l-99.27 0 0 -92 247.17 0 -147.9 92zm519.66 -244.7c88.13,0 164.1,19.4 226.91,58.2 62.8,38.8 94.2,85.74 94.2,140.81 0,54.45 -31.4,101.39 -94.2,140.19 -62.81,38.8 -138.78,58.2 -226.91,58.2l-25.32 0 0 -92 25.32 0c47.61,0 88.13,-10.01 121.56,-31.29 34.44,-20.65 51.67,-45.69 51.67,-75.1 0,-30.04 -17.22,-55.07 -51.67,-75.72 -33.43,-21.28 -73.94,-31.29 -121.56,-31.29l-74.96 0 0 366.74 -147.89 -92 0 -274.74 -49.64 0 0 -92 272.49 0z"/>
 </g>
</svg>
